# xmcd
#
# Track frame offsets: 
#        150
#        20210
#        41218
#        63271
#        79363
#        96088
#        108345
#        129570
#        161198
#        175953
#        198384
#
# Disc length: 3071 seconds
#
# Revision: 0
# Processed by: cddbd v1.5.2PL0 Copyright (c) Steve Scherf et al.
# Submitted via: ExactAudioCopy v1.0b3
#
DISCID=9c0bfd0b
DTITLE=Procol Harum - Home (2009 Reissue)
DYEAR=1970
DGENRE=Rock
TTITLE0=Whisky Train
TTITLE1=The Dead Man's Dream
TTITLE2=Still There'll Be More
TTITLE3=Nothing That I Didn't Know
TTITLE4=About to Die
TTITLE5=Barnyard Story
TTITLE6=Piggy Pig Pig
TTITLE7=Whaling Stories
TTITLE8=Your Own Choice
TTITLE9=Still There'll Be More (Take3 - Raw Track)
TTITLE10=Whaling Stories (Raw Track)
EXTD=
EXTT0=
EXTT1=
EXTT2=
EXTT3=
EXTT4=
EXTT5=
EXTT6=
EXTT7=
EXTT8=
EXTT9=
EXTT10=
PLAYORDER=
